<?xml version="1.0" encoding="UTF-8"?>
<svg id="Layer_2" data-name="Layer 2" xmlns="http://www.w3.org/2000/svg" viewBox="0 0 183.18 256.05">
  <defs>
    <style>
      .cls-1 {
        fill: none;
      }

      .cls-1, .cls-2 {
        stroke: #fff;
        stroke-linecap: round;
        stroke-linejoin: round;
        stroke-width: 2px;
      }

      .cls-2 {
        fill: #fff;
      }
    </style>
  </defs>
  <g id="Layer_1-2" data-name="Layer 1">
    <path class="cls-1" d="M65.5,87.58C32.5,98.6,10.34,119.97,2.99,154.64c-6.18,29.17,2.26,54.58,22.08,76.41,8.2,9.03,18.02,15.85,29.32,20.56,4.31,1.8,8.86,2.33,13.32,2.61,17.35,1.09,34.75,1.26,52.06-.52,11.84-1.22,21.58-7.7,30.38-15,14.55-12.07,24.98-27.41,29.32-45.9,7.47-31.84-.53-59.84-23.74-83-11.12-11.09-24.77-18.07-39.73-23.05-6.16-2.05-11.93-.84-17.83-1.24-8.82-.6-17.73.07-26.58-.29-2.58-.1-3.23,2.78-5.55,2.35"/>
    <path class="cls-1" d="M7.88,171.24c1.11-6.25,1.46-12.59,2.49-18.88,1.83-11.25,9.21-13.81,18.56-14.94,17.67-2.13,35.4-2.91,53.18-3.43,21.51-.64,42.9.61,64.25,2.52,7.74.69,15.79,1.54,23.24,5.77-2.95,5.56-8.51,4.74-12.73,5.51-16.07,2.93-32.39,3.83-48.72,4.03-23.29.28-46.61.45-69.79-2.27-8.08-.95-16.43-1.3-23.83-5.45"/>
    <path class="cls-1" d="M116.47,52.13c-7.12,2.07-14.22,3.38-21.63,1.2-2.04-.6-4.53-.57-6.6,0-7.39,2.01-14.51.71-21.63-1.19"/>
    <path class="cls-1" d="M114.25,47.69c3.45,1.94,4.16,6.73,3.79,9.96-.81,7.03-.36,14.05-.4,21.06-.01,2.74-.42,4.81-3.39,5.54"/>
    <path class="cls-1" d="M68.82,47.69c-1.7,1.8-3.32,6.69-3.32,9.97,0,7.02.11,14.04-.05,21.05-.06,2.75.41,4.81,3.38,5.54"/>
    <path class="cls-1" d="M66.05,88.14c3.79,3.02,8.59,2.85,12.73,2.56,10.18-.73,20.34.26,30.48-.37,2.71-.17,5.54-.17,7.76-2.19"/>
    <rect class="cls-2" x="62.97" y="1" width="55.16" height="46.69" rx="10.4" ry="10.4"/>
  </g>
</svg>